<svg xmlns="http://www.w3.org/2000/svg" xmlns:xlink="http://www.w3.org/1999/xlink" width="344" zoomAndPan="magnify" viewBox="0 0 258 48" height="64" preserveAspectRatio="xMidYMid meet" version="1.0"><defs><g/></defs><g fill="#000000" fill-opacity="1"><g transform="translate(75.638792, 41.020611)"><g><path d="M 17.855469 -34.117188 C 21.292969 -34.117188 24.195312 -33.28125 26.570312 -31.609375 C 28.945312 -29.9375 30.523438 -27.492188 31.304688 -24.273438 L 24.601562 -22.679688 C 24.195312 -24.429688 23.367188 -25.804688 22.121094 -26.804688 C 20.871094 -27.804688 19.339844 -28.304688 17.527344 -28.304688 C 14.902344 -28.304688 12.855469 -27.375 11.386719 -25.515625 C 9.917969 -23.65625 9.183594 -20.824219 9.183594 -17.011719 C 9.183594 -13.511719 9.785156 -10.675781 10.988281 -8.503906 C 12.191406 -6.335938 14.339844 -5.25 17.433594 -5.25 C 19.402344 -5.25 20.996094 -5.875 22.214844 -7.125 C 23.429688 -8.371094 24.304688 -10.105469 24.835938 -12.324219 L 31.398438 -10.261719 C 30.492188 -6.609375 28.835938 -3.890625 26.429688 -2.109375 C 24.023438 -0.328125 21.042969 0.5625 17.480469 0.5625 C 14.449219 0.5625 11.777344 -0.140625 9.464844 -1.546875 C 7.15625 -2.953125 5.367188 -4.9375 4.101562 -7.496094 C 2.835938 -10.058594 2.203125 -13.058594 2.203125 -16.496094 C 2.203125 -19.558594 2.734375 -22.421875 3.796875 -25.09375 C 4.859375 -27.765625 6.5625 -29.9375 8.902344 -31.609375 C 11.246094 -33.28125 14.230469 -34.117188 17.855469 -34.117188 Z M 17.855469 -34.117188 "/></g></g></g><g fill="#000000" fill-opacity="1"><g transform="translate(109.473527, 41.020611)"><g><path d="M 25.914062 -32.476562 C 27.320312 -31.882812 28.492188 -30.835938 29.429688 -29.335938 C 30.367188 -27.835938 30.835938 -26.101562 30.835938 -24.132812 C 30.835938 -21.636719 30.0625 -19.535156 28.515625 -17.832031 C 26.96875 -16.128906 24.789062 -15.105469 21.980469 -14.761719 C 23.195312 -13.917969 24.125 -13.222656 24.765625 -12.675781 C 25.40625 -12.128906 26.109375 -11.363281 26.875 -10.378906 C 27.640625 -9.394531 28.585938 -7.996094 29.710938 -6.1875 L 33.554688 0 L 25.445312 0 L 20.011719 -8.152344 C 18.792969 -9.964844 17.847656 -11.253906 17.175781 -12.019531 C 16.503906 -12.785156 15.792969 -13.308594 15.042969 -13.589844 C 14.292969 -13.871094 13.230469 -14.011719 11.855469 -14.011719 L 10.167969 -14.011719 L 10.167969 0 L 3.421875 0 L 3.421875 -33.554688 L 18.089844 -33.554688 C 19.683594 -33.554688 21.128906 -33.484375 22.421875 -33.34375 C 23.71875 -33.203125 24.882812 -32.914062 25.914062 -32.476562 Z M 21.136719 -19.730469 C 21.949219 -19.980469 22.601562 -20.449219 23.101562 -21.136719 C 23.601562 -21.824219 23.851562 -22.679688 23.851562 -23.710938 C 23.851562 -25.492188 23.085938 -26.726562 21.558594 -27.414062 C 21.152344 -27.601562 20.652344 -27.726562 20.058594 -27.789062 C 19.464844 -27.851562 18.449219 -27.882812 17.011719 -27.882812 L 10.167969 -27.882812 L 10.167969 -19.355469 L 16.121094 -19.355469 C 18.558594 -19.355469 20.230469 -19.480469 21.136719 -19.730469 Z M 21.136719 -19.730469 "/></g></g></g><g fill="#000000" fill-opacity="1"><g transform="translate(143.308261, 41.020611)"><g><path d="M 19.589844 -10.730469 L 25.539062 -33.554688 L 35.710938 -33.554688 L 35.710938 0 L 29.429688 0 L 29.429688 -26.429688 L 22.820312 0 L 16.308594 0 L 9.605469 -26.382812 L 9.605469 0 L 3.328125 0 L 3.328125 -33.554688 L 13.449219 -33.554688 Z M 19.589844 -10.730469 "/></g></g></g></svg>